<mxfile host="Electron" agent="Mozilla/5.0 (Windows NT 10.0; Win64; x64) AppleWebKit/537.36 (KHTML, like Gecko) draw.io/24.7.5 Chrome/126.0.6478.183 Electron/31.3.0 Safari/537.36" version="24.7.5">
  <diagram name="Page-1" id="m4aGgxYIRtn1H2WNrhPq">
    <mxGraphModel dx="862" dy="509" grid="1" gridSize="10" guides="1" tooltips="1" connect="1" arrows="1" fold="1" page="1" pageScale="1" pageWidth="827" pageHeight="1169" math="0" shadow="0">
      <root>
        <mxCell id="0" />
        <mxCell id="1" parent="0" />
        <mxCell id="hJAjijqLxggUVZl82MWp-1" value="" style="endArrow=none;html=1;rounded=0;" parent="1" source="hJAjijqLxggUVZl82MWp-5" target="hJAjijqLxggUVZl82MWp-3" edge="1">
          <mxGeometry width="50" height="50" relative="1" as="geometry">
            <mxPoint x="240" y="656" as="sourcePoint" />
            <mxPoint x="240" y="560" as="targetPoint" />
          </mxGeometry>
        </mxCell>
        <mxCell id="hJAjijqLxggUVZl82MWp-2" value="" style="endArrow=none;html=1;rounded=0;" parent="1" source="hJAjijqLxggUVZl82MWp-3" edge="1">
          <mxGeometry width="50" height="50" relative="1" as="geometry">
            <mxPoint x="240" y="560" as="sourcePoint" />
            <mxPoint x="440" y="560" as="targetPoint" />
          </mxGeometry>
        </mxCell>
        <mxCell id="hJAjijqLxggUVZl82MWp-4" value="t" style="shape=waypoint;sketch=0;fillStyle=solid;size=6;pointerEvents=1;points=[];fillColor=none;resizable=0;rotatable=0;perimeter=centerPerimeter;snapToPoint=1;strokeColor=none;strokeWidth=1;spacing=12;align=left;verticalAlign=middle;fontStyle=2" parent="1" vertex="1">
          <mxGeometry x="430" y="550" width="20" height="20" as="geometry" />
        </mxCell>
        <mxCell id="hJAjijqLxggUVZl82MWp-5" value="" style="shape=waypoint;sketch=0;fillStyle=solid;size=6;pointerEvents=1;points=[];fillColor=none;resizable=0;rotatable=0;perimeter=centerPerimeter;snapToPoint=1;strokeColor=none;" parent="1" vertex="1">
          <mxGeometry x="230" y="650" width="20" height="20" as="geometry" />
        </mxCell>
        <mxCell id="hJAjijqLxggUVZl82MWp-6" value="f" style="shape=waypoint;sketch=0;fillStyle=solid;size=6;pointerEvents=1;points=[];fillColor=none;resizable=0;rotatable=0;perimeter=centerPerimeter;snapToPoint=1;strokeColor=none;align=center;verticalAlign=bottom;fontStyle=2;spacing=12;" parent="1" vertex="1">
          <mxGeometry x="230" y="450" width="20" height="20" as="geometry" />
        </mxCell>
        <mxCell id="hJAjijqLxggUVZl82MWp-7" value="" style="endArrow=none;html=1;rounded=0;" parent="1" source="hJAjijqLxggUVZl82MWp-3" target="hJAjijqLxggUVZl82MWp-6" edge="1">
          <mxGeometry width="50" height="50" relative="1" as="geometry">
            <mxPoint x="240" y="560" as="sourcePoint" />
            <mxPoint x="240" y="464" as="targetPoint" />
          </mxGeometry>
        </mxCell>
        <mxCell id="hJAjijqLxggUVZl82MWp-11" value="" style="endArrow=none;html=1;rounded=0;" parent="1" source="hJAjijqLxggUVZl82MWp-15" target="hJAjijqLxggUVZl82MWp-13" edge="1">
          <mxGeometry width="50" height="50" relative="1" as="geometry">
            <mxPoint x="456" y="592" as="sourcePoint" />
            <mxPoint x="456" y="400" as="targetPoint" />
          </mxGeometry>
        </mxCell>
        <mxCell id="hJAjijqLxggUVZl82MWp-12" value="" style="endArrow=none;html=1;rounded=0;" parent="1" source="hJAjijqLxggUVZl82MWp-13" target="hJAjijqLxggUVZl82MWp-14" edge="1">
          <mxGeometry width="50" height="50" relative="1" as="geometry">
            <mxPoint x="456" y="496" as="sourcePoint" />
            <mxPoint x="584" y="496" as="targetPoint" />
          </mxGeometry>
        </mxCell>
        <mxCell id="hJAjijqLxggUVZl82MWp-13" value="" style="shape=waypoint;sketch=0;fillStyle=solid;size=6;pointerEvents=1;points=[];fillColor=none;resizable=0;rotatable=0;perimeter=centerPerimeter;snapToPoint=1;strokeColor=none;" parent="1" vertex="1">
          <mxGeometry x="510" y="550" width="20" height="20" as="geometry" />
        </mxCell>
        <mxCell id="hJAjijqLxggUVZl82MWp-14" value="t" style="shape=waypoint;sketch=0;fillStyle=solid;size=6;pointerEvents=1;points=[];fillColor=none;resizable=0;rotatable=0;perimeter=centerPerimeter;snapToPoint=1;strokeColor=none;strokeWidth=1;spacing=12;align=left;verticalAlign=middle;fontStyle=2" parent="1" vertex="1">
          <mxGeometry x="710" y="550" width="20" height="20" as="geometry" />
        </mxCell>
        <mxCell id="hJAjijqLxggUVZl82MWp-15" value="" style="shape=waypoint;sketch=0;fillStyle=solid;size=6;pointerEvents=1;points=[];fillColor=none;resizable=0;rotatable=0;perimeter=centerPerimeter;snapToPoint=1;strokeColor=none;" parent="1" vertex="1">
          <mxGeometry x="510" y="650" width="20" height="20" as="geometry" />
        </mxCell>
        <mxCell id="hJAjijqLxggUVZl82MWp-16" value="s" style="shape=waypoint;sketch=0;fillStyle=solid;size=6;pointerEvents=1;points=[];fillColor=none;resizable=0;rotatable=0;perimeter=centerPerimeter;snapToPoint=1;strokeColor=none;align=center;verticalAlign=bottom;fontStyle=2;spacing=12;" parent="1" vertex="1">
          <mxGeometry x="510" y="450" width="20" height="20" as="geometry" />
        </mxCell>
        <mxCell id="hJAjijqLxggUVZl82MWp-17" value="" style="endArrow=none;html=1;rounded=0;" parent="1" source="hJAjijqLxggUVZl82MWp-13" target="hJAjijqLxggUVZl82MWp-16" edge="1">
          <mxGeometry width="50" height="50" relative="1" as="geometry">
            <mxPoint x="488" y="586" as="sourcePoint" />
            <mxPoint x="512" y="512" as="targetPoint" />
          </mxGeometry>
        </mxCell>
        <mxCell id="hJAjijqLxggUVZl82MWp-21" value="" style="endArrow=none;html=1;rounded=0;" parent="1" edge="1">
          <mxGeometry width="50" height="50" relative="1" as="geometry">
            <mxPoint x="520" y="540" as="sourcePoint" />
            <mxPoint x="720" y="480" as="targetPoint" />
            <Array as="points">
              <mxPoint x="600" y="540" />
              <mxPoint x="600" y="600" />
              <mxPoint x="680" y="600" />
              <mxPoint x="680" y="480" />
            </Array>
          </mxGeometry>
        </mxCell>
        <mxCell id="hJAjijqLxggUVZl82MWp-23" value="" style="endArrow=none;html=1;rounded=0;" parent="1" source="hJAjijqLxggUVZl82MWp-3" edge="1">
          <mxGeometry width="50" height="50" relative="1" as="geometry">
            <mxPoint x="270" y="600" as="sourcePoint" />
            <mxPoint x="440" y="520" as="targetPoint" />
            <Array as="points">
              <mxPoint x="320" y="520" />
              <mxPoint x="400" y="600" />
            </Array>
          </mxGeometry>
        </mxCell>
        <mxCell id="wN2rmzVgLvyE2CzHywlX-1" value="" style="endArrow=none;html=1;rounded=0;" edge="1" parent="1" target="hJAjijqLxggUVZl82MWp-3">
          <mxGeometry width="50" height="50" relative="1" as="geometry">
            <mxPoint x="240" y="560" as="sourcePoint" />
            <mxPoint x="240" y="464" as="targetPoint" />
          </mxGeometry>
        </mxCell>
        <mxCell id="hJAjijqLxggUVZl82MWp-3" value="" style="shape=waypoint;sketch=0;fillStyle=solid;size=6;pointerEvents=1;points=[];fillColor=none;resizable=0;rotatable=0;perimeter=centerPerimeter;snapToPoint=1;strokeColor=none;" parent="1" vertex="1">
          <mxGeometry x="230" y="550" width="20" height="20" as="geometry" />
        </mxCell>
      </root>
    </mxGraphModel>
  </diagram>
</mxfile>
